<svg xmlns="http://www.w3.org/2000/svg" width="16" height="16" fill="none" viewBox="0 -1 20 20"><path fill="#369" fill-rule="evenodd" d="M0 1.5A1.5 1.5 0 0 1 1.5 0h1a1.5 1.5 0 1 1 0 3h-1A1.5 1.5 0 0 1 0 1.5zm0 5A1.5 1.5 0 0 1 1.5 5h1a1.5 1.5 0 1 1 0 3h-1A1.5 1.5 0 0 1 0 6.5zm0 5A1.5 1.5 0 0 1 1.5 10h1a1.5 1.5 0 0 1 0 3h-1A1.5 1.5 0 0 1 0 11.5zm0 5A1.5 1.5 0 0 1 1.5 15h1a1.5 1.5 0 0 1 0 3h-1A1.5 1.5 0 0 1 0 16.5zm6-15A1.5 1.5 0 0 1 7.5 0h11a1.5 1.5 0 0 1 0 3h-11A1.5 1.5 0 0 1 6 1.5zm0 5A1.5 1.5 0 0 1 7.5 5h11a1.5 1.5 0 0 1 0 3h-11A1.5 1.5 0 0 1 6 6.5zm0 5A1.5 1.5 0 0 1 7.5 10h11a1.5 1.5 0 0 1 0 3h-11A1.5 1.5 0 0 1 6 11.5zm0 5A1.5 1.5 0 0 1 7.5 15h11a1.5 1.5 0 0 1 0 3h-11A1.5 1.5 0 0 1 6 16.5z" clip-rule="evenodd"/></svg>