<svg xmlns="http://www.w3.org/2000/svg" width="16" height="16" fill="none" viewBox="0 -1 24 24">
    <path fill="#113B63" fill-rule="evenodd" d="M5 22a3 3 0 0 1-.753-5.905l.443-1.329a3 3 0 0 1-1.83-2.536l-.704-9.16A1.16 1.16 0 0 0 1 2a1 1 0 1 1 0-2 3.16 3.16 0 0 1 3.15 2.917L23 2.945a1 1 0 0 1 .98 1.195l-1.68 8.445A3 3 0 0 1 19.359 15H6.721l-.43 1.29a3.01 3.01 0 0 1 1.543 1.723c.054-.009.11-.013.166-.013h8.17a3.001 3.001 0 1 1 0 2H8c-.057 0-.112-.005-.166-.014A3.001 3.001 0 0 1 5 22zm-.017-4a1 1 0 1 0 .033 2 1 1 0 0 0-.033-2zM19 20a1 1 0 1 0 0-2 1 1 0 0 0 0 2z" clip-rule="evenodd"/>
</svg>