<svg xmlns="http://www.w3.org/2000/svg" width="25" height="25" fill="none" viewBox="0 -1 24 24"><g fill="#81A7CC"><path d="M1.293 20.293a1 1 0 1 0 1.414 1.414l.998-.998.002-.002 18-18 .002-.002.998-.998A1 1 0 0 0 21.293.293l-20 20zM19.597 6.94a1 1 0 0 0 .044 1.413A21.303 21.303 0 0 1 21.998 11c-3.065 4.033-6.385 6-9.997 6-.579 0-1.148-.05-1.709-.15a1 1 0 0 0-.352 1.968c.677.121 1.365.182 2.061.182 4.3 0 8.174-2.296 11.59-6.79a2 2 0 0 0 0-2.42 23.297 23.297 0 0 0-2.58-2.895 1 1 0 0 0-1.414.044zM4.404 15.06a1 1 0 0 0-.044-1.414A21.311 21.311 0 0 1 2.004 11C5.07 6.967 8.39 5 12.001 5c.578 0 1.147.05 1.707.15a1 1 0 0 0 .352-1.969A11.68 11.68 0 0 0 12.001 3C7.701 3 3.827 5.296.411 9.79a2 2 0 0 0 0 2.42 23.302 23.302 0 0 0 2.58 2.894 1 1 0 0 0 1.413-.044z"/></g></svg>