<svg xmlns="http://www.w3.org/2000/svg" width="16" height="16" fill="none" viewBox="0 0 24 24">
    <path fill="#113B63" fill-rule="evenodd" d="M9.172 18.364a1.5 1.5 0 1 1 2.121 2.121L9.88 21.9a5.5 5.5 0 1 1-7.778-7.778l4.95-4.95a5.5 5.5 0 0 1 7.778 0 1.5 1.5 0 1 1-2.122 2.122 2.5 2.5 0 0 0-3.535 0l-4.95 4.95a2.5 2.5 0 0 0 3.536 3.535l1.414-1.414Zm5.657-12.728a1.5 1.5 0 1 1-2.122-2.121L14.122 2.1A5.5 5.5 0 0 1 21.9 9.88l-4.95 4.95a5.5 5.5 0 0 1-7.778 0 1.5 1.5 0 1 1 2.121-2.122 2.5 2.5 0 0 0 3.536 0l4.95-4.95a2.5 2.5 0 1 0-3.536-3.535l-1.414 1.414Z" clip-rule="evenodd"/>
</svg>