<svg xmlns="http://www.w3.org/2000/svg" width="16" height="16" fill="none" viewBox="0 0 24 24"><path fill="#999" fill-rule="evenodd" d="M6.5 15A1.5 1.5 0 0 1 8 16.5v1a1.5 1.5 0 0 1-3 0v-1A1.5 1.5 0 0 1 6.5 15Zm15-9A1.5 1.5 0 0 1 23 7.5v10a1.5 1.5 0 0 1-3 0v-10A1.5 1.5 0 0 1 21.5 6Zm-5 3a1.5 1.5 0 0 1 1.5 1.5v7a1.5 1.5 0 0 1-3 0v-7A1.5 1.5 0 0 1 16.5 9Zm-5 3a1.5 1.5 0 0 1 1.5 1.5v4a1.5 1.5 0 0 1-3 0v-4a1.5 1.5 0 0 1 1.5-1.5ZM0 1.5a1.5 1.5 0 0 1 3 0v18A1.5 1.5 0 0 0 4.5 21h18a1.5 1.5 0 0 1 0 3h-18A4.5 4.5 0 0 1 0 19.5v-18Z" clip-rule="evenodd"/></svg>