<svg xmlns="http://www.w3.org/2000/svg" width="16" height="16" fill="none" viewBox="-1 0 24 24"><path fill="#113B63" fill-rule="evenodd" d="M20 10.83V23a1 1 0 1 1-2 0V10.83a3.001 3.001 0 0 1 .014-5.664A1.008 1.008 0 0 1 18 5V1a1 1 0 1 1 2 0v4c0 .057-.005.112-.014.166A3.001 3.001 0 0 1 20 10.829zm-8 3.34a3.001 3.001 0 0 1 0 5.66V23a1 1 0 1 1-2 0v-3.17a3.001 3.001 0 0 1 0-5.66V1a1 1 0 1 1 2 0v13.17zm-8-3.34V23a1 1 0 1 1-2 0V10.83a3.001 3.001 0 0 1 0-5.66V1a1 1 0 0 1 2 0v4.17a3.001 3.001 0 0 1 0 5.66z" clip-rule="evenodd"/></svg>