<svg xmlns="http://www.w3.org/2000/svg" width="25" height="25" fill="none" viewBox="0 -4 24 24"><path fill="#81A7CC" fill-rule="evenodd" d="M12.001 16c-4.3 0-8.174-2.296-11.59-6.79a2 2 0 0 1 .001-2.42C3.827 2.296 7.702 0 12.002 0 16.3 0 20.174 2.296 23.59 6.79a2 2 0 0 1 0 2.42C20.175 13.704 16.3 16 12.001 16zm0-2c3.612 0 6.932-1.967 9.997-6C18.933 3.967 15.613 2 12 2S5.07 3.967 2.004 8c3.065 4.033 6.385 6 9.997 6zM12 12a4 4 0 1 1 0-8 4 4 0 0 1 0 8zm0-2a2 2 0 1 0 0-4 2 2 0 0 0 0 4z" clip-rule="evenodd"/></svg>