<svg xmlns="http://www.w3.org/2000/svg" width="16" height="16" fill="none" viewBox="0 0 16 16"><path fill="#336699" fill-rule="evenodd" d="M8 0a8 8 0 1 1 0 16A8 8 0 0 1 8 0zm-.93 9.228h1.548c-.024-.24 0-.454.072-.642s.17-.366.294-.534c.124-.168.26-.33.408-.486.148-.156.288-.318.42-.486.132-.168.242-.35.33-.546a1.61 1.61 0 0 0 .132-.666c0-.352-.058-.658-.174-.918a1.729 1.729 0 0 0-.48-.642 1.988 1.988 0 0 0-.72-.372 3.199 3.199 0 0 0-.894-.12c-.472 0-.902.1-1.29.3a3.28 3.28 0 0 0-1.002.792l.972.888c.16-.16.326-.292.498-.396.172-.104.37-.156.594-.156.24 0 .434.064.582.192.148.128.222.316.222.564a.84.84 0 0 1-.126.438c-.084.14-.19.284-.318.432l-.402.462c-.14.16-.266.336-.378.528-.112.192-.198.4-.258.624a1.83 1.83 0 0 0-.03.744zm.768 2.916c.304 0 .558-.106.762-.318a1.09 1.09 0 0 0 .306-.786c0-.32-.102-.586-.306-.798a1.014 1.014 0 0 0-.762-.318.995.995 0 0 0-.756.318c-.2.212-.3.478-.3.798 0 .312.1.574.3.786.2.212.452.318.756.318z" clip-rule="evenodd"/></svg>