<svg xmlns="http://www.w3.org/2000/svg" width="16" height="16" fill="none" viewBox="0 0 21 21"><path fill="#369" fill-rule="evenodd" d="M4.221 12.404A12.732 12.732 0 0 0 .757 10.97a1 1 0 0 1-.464-1.677L2.12 7.464A5 5 0 0 1 5.657 6h2.47l.47-.646A13 13 0 0 1 19.111 0H20a1 1 0 0 1 1 1v.89a13 13 0 0 1-5.354 10.513l-.435.317.21.84a5 5 0 0 1-1.315 4.748l-2.399 2.4a1 1 0 0 1-1.677-.465 12.733 12.733 0 0 0-1.434-3.464 41.87 41.87 0 0 1-5.28 2.17 1 1 0 0 1-1.265-1.265 41.874 41.874 0 0 1 2.17-5.28zm3.197 2.724a12.764 12.764 0 0 0-1.546-1.546c-.435.9-.836 1.817-1.202 2.748a39.9 39.9 0 0 0 2.748-1.202z" clip-rule="evenodd"/></svg>