<svg xmlns="http://www.w3.org/2000/svg" width="16" height="16" fill="none" viewBox="0 -0.5 24 24"><path fill="#336699" fill-rule="evenodd" d="m1.496 11.97 10-5.834a1 1 0 0 1 1.008 0l10 5.834a1 1 0 0 1 .496.863v9.01a1 1 0 0 1-1 1H2a1 1 0 0 1-1-1v-9.01a1 1 0 0 1 .496-.863zM0 9.1V7.417a1 1 0 0 1 .496-.864l11-6.417a1 1 0 0 1 1.008 0l11 6.417a1 1 0 0 1 .496.864V9.1a1 1 0 0 1-1.504.864l-9.992-5.829a1 1 0 0 0-1.008 0L1.504 9.965A1 1 0 0 1 0 9.101zm6 4.741a1 1 0 0 0-1 1v3a1 1 0 0 0 1 1h3a1 1 0 0 0 1-1v-3a1 1 0 0 0-1-1H6zm8 0a1 1 0 0 0-1 1v8h5v-8a1 1 0 0 0-1-1h-3z" clip-rule="evenodd"/></svg>