<svg xmlns="http://www.w3.org/2000/svg" width="16" height="16" fill="none" viewBox="-2 0 24 24"><path fill="#369" fill-rule="evenodd" d="M1.243.31 4 1 6.684.105a1 1 0 0 1 .632 0L10 1l2.684-.895a1 1 0 0 1 .632 0L16 1l2.758-.69A1 1 0 0 1 20 1.28v21.44a1 1 0 0 1-1.242.97L16 23l-2.684.895a1 1 0 0 1-.632 0L10 23l-2.684.895a1 1 0 0 1-.632 0L4 23l-2.757.69A1 1 0 0 1 0 22.72V1.28A1 1 0 0 1 1.243.31zM4.167 7h11.666C16.478 7 17 7.448 17 8s-.522 1-1.167 1H4.167C3.522 9 3 8.552 3 8s.522-1 1.167-1zm0 4h11.666c.645 0 1.167.448 1.167 1s-.522 1-1.167 1H4.167C3.522 13 3 12.552 3 12s.522-1 1.167-1zm0 4h11.666c.645 0 1.167.448 1.167 1s-.522 1-1.167 1H4.167C3.522 17 3 16.552 3 16s.522-1 1.167-1z" clip-rule="evenodd"/></svg>