<svg display="none" xmlns="http://www.w3.org/2000/svg">
    <symbol id="icon-right-arrow" viewBox="0 0 33 33">
        <path d="M23.13,12.89l-5.41-5.59c-.38-.4-1.02-.41-1.41-.02-.4,.38-.41,1.02-.02,1.41l5.14,5.3H5c-1.65,0-3-1.35-3-3V3c0-.55-.45-1-1-1s-1,.45-1,1V11c0,2.76,2.24,5,5,5H21.42l-5.14,5.3c-.38,.4-.37,1.03,.02,1.41,.19,.19,.44,.28,.7,.28s.52-.1,.72-.3l5.4-5.58c1.17-1.17,1.17-3.07,.01-4.23Z"/>
    </symbol>
    <symbol id="star" viewBox="0 0 50 50">
        <path fill="#37474F" d="M6,36V8c0-2.2,1.8-4,4-4h14c2.2,0,4,1.8,4,4v28c0,2.2-1.8,4-4,4H10C7.8,40,6,38.2,6,36z"/>
        <path fill="#BBDEFB" d="M24,7H10C9.4,7,9,7.4,9,8v25c0,0.6,0.4,1,1,1h14c0.6,0,1-0.4,1-1V8C25,7.4,24.6,7,24,7z"/>
        <rect x="14" y="36" fill="#78909C" width="6" height="2"/>
        <path fill="#C556AF" d="M20,40V12c0-2.2,1.8-4,4-4h14c2.2,0,4,1.8,4,4v28c0,2.2-1.8,4-4,4H24C21.8,44,20,42.2,20,40z"/>
        <path fill="#FFF3E0" d="M38,11H24c-0.6,0-1,0.4-1,1v25c0,0.6,0.4,1,1,1h14c0.6,0,1-0.4,1-1V12C39,11.4,38.6,11,38,11z"/>
        <circle fill="#FFF3E0" cx="31" cy="41" r="1.5"/>
    </symbol>
</svg>